<?xml version="1.0" encoding="UTF-8" standalone="no"?>
<svg
   xmlns:dc="http://purl.org/dc/elements/1.1/"
   xmlns:cc="http://creativecommons.org/ns#"
   xmlns:rdf="http://www.w3.org/1999/02/22-rdf-syntax-ns#"
   xmlns:svg="http://www.w3.org/2000/svg"
   xmlns="http://www.w3.org/2000/svg"
   xmlns:xlink="http://www.w3.org/1999/xlink"
   xmlns:sodipodi="http://sodipodi.sourceforge.net/DTD/sodipodi-0.dtd"
   xmlns:inkscape="http://www.inkscape.org/namespaces/inkscape"
   viewBox="0 0 48 48"
   version="1.1"
   id="svg7"
   sodipodi:docname="logo.svg"
   inkscape:version="1.0.1 (3bc2e813f5, 2020-09-07)">
  <metadata
     id="metadata11">
    <rdf:RDF>
      <cc:Work
         rdf:about="">
        <dc:format>image/svg+xml</dc:format>
        <dc:type
           rdf:resource="http://purl.org/dc/dcmitype/StillImage" />
        <dc:title></dc:title>
      </cc:Work>
    </rdf:RDF>
  </metadata>
  <sodipodi:namedview
     pagecolor="#ffffff"
     bordercolor="#666666"
     borderopacity="1"
     objecttolerance="10"
     gridtolerance="10"
     guidetolerance="10"
     inkscape:pageopacity="0"
     inkscape:pageshadow="2"
     inkscape:window-width="2560"
     inkscape:window-height="1377"
     id="namedview9"
     showgrid="false"
     inkscape:zoom="22.627417"
     inkscape:cx="25.225439"
     inkscape:cy="23.78993"
     inkscape:window-x="-8"
     inkscape:window-y="-8"
     inkscape:window-maximized="1"
     inkscape:current-layer="svg7" />
  <defs
     id="defs3">
    <linearGradient
       inkscape:collect="always"
       id="linearGradient1039">
      <stop
         style="stop-color:#8849a3;stop-opacity:1;"
         offset="0"
         id="stop1035" />
      <stop
         style="stop-color:#8849a3;stop-opacity:0;"
         offset="1"
         id="stop1037" />
    </linearGradient>
    <path
       fill="#000000"
       id="i-2187"
       d="M24,0C10.767,0,0,10.767,0,24s10.767,24,24,24s24-10.767,24-24S37.233,0,24,0z M24,46C11.869,46,2,36.131,2,24 S11.869,2,24,2s22,9.869,22,22S36.131,46,24,46z M24,13c-6.065,0-11,4.935-11,11s4.935,11,11,11s11-4.935,11-11S30.065,13,24,13z M24,33c-4.963,0-9-4.037-9-9s4.037-9,9-9s9,4.037,9,9S28.963,33,24,33z M24,36.333v2c-7.903,0-14.333-6.43-14.333-14.333h2 C11.667,30.801,17.199,36.333,24,36.333z M38.333,24h-2c0-6.801-5.532-12.334-12.333-12.334v-2 C31.903,9.666,38.333,16.097,38.333,24z M24,39.667v2c-9.741,0-17.667-7.926-17.667-17.667h2C8.333,32.639,15.361,39.667,24,39.667z M41.667,24h-2c0-8.639-7.028-15.666-15.667-15.666v-2C33.741,6.334,41.667,14.259,41.667,24z M24,43v2C12.421,45,3,35.579,3,24h2 C5,34.477,13.523,43,24,43z M45,24h-2c0-10.477-8.523-19-19-19V3C35.579,3,45,12.421,45,24z M24,21c-1.654,0-3,1.346-3,3 s1.346,3,3,3s3-1.346,3-3S25.654,21,24,21z M24,25c-0.552,0-1-0.448-1-1s0.448-1,1-1s1,0.448,1,1S24.552,25,24,25z" />
    <radialGradient
       inkscape:collect="always"
       xlink:href="#linearGradient1039"
       id="radialGradient1041"
       cx="24"
       cy="24"
       fx="24"
       fy="24"
       r="24.4"
       gradientUnits="userSpaceOnUse" />
  </defs>
  <use
     x="0"
     y="0"
     xlink:href="#i-2187"
     id="use5"
     transform="rotate(84.306119,24,24)"
     width="100%"
     height="100%"
     style="stroke:url(#radialGradient1041);stroke-opacity:1;fill:#8849a3;fill-opacity:1;opacity:0.868;stroke-width:0.8;stroke-miterlimit:4;stroke-dasharray:none" />
</svg>
